<?xml version="1.0" standalone="no"?>
<!DOCTYPE svg PUBLIC "-//W3C//DTD SVG 1.1//EN" "http://www.w3.org/Graphics/SVG/1.1/DTD/svg11.dtd">
<svg width="104px" height="36px" version="1.1" xmlns="http://www.w3.org/2000/svg" xmlns:xlink="http://www.w3.org/1999/xlink" xml:space="preserve" style="fill-rule:evenodd;clip-rule:evenodd;stroke-linejoin:round;stroke-miterlimit:1.41421;">
    <g>
        <g id="Layer1">
            <g>
                <path d="M46.6837,12.7667C45.3297,12.7667 44.6487,13.2287 44.6487,14.1507C44.6487,14.5007 44.7427,14.7497 44.9257,14.8957C45.1118,15.0417 45.2727,15.1537 45.4108,15.2377C45.5507,15.3217 45.7447,15.4107 45.9927,15.5017C46.4337,15.6547 46.9427,15.8217 47.5158,16.0027C49.4997,16.6217 50.8547,17.2797 51.5707,17.9797C52.2927,18.6757 52.6508,19.6397 52.6508,20.8677C52.6508,22.5707 52.0417,23.8917 50.8297,24.8327C49.6107,25.7767 48.0117,26.2497 46.0377,26.2497C45.0467,26.2497 44.0297,26.1227 42.9817,25.8767C41.9287,25.6247 40.9837,25.2457 40.1467,24.7327L41.3477,21.4137C42.8287,22.1477 44.3307,22.5107 45.8577,22.5107C46.6757,22.5107 47.2948,22.3897 47.7178,22.1377C48.1377,21.8757 48.3507,21.5187 48.3507,21.0607C48.3397,20.6037 48.0117,20.2357 47.3707,19.9627C47.0667,19.8407 46.6327,19.6877 46.0587,19.5047C45.4887,19.3207 44.9797,19.1547 44.5277,19.0027C44.0887,18.8487 43.6577,18.6727 43.2507,18.4747C42.3087,18.0397 41.5928,17.4947 41.0947,16.8417C40.6017,16.1827 40.3487,15.3487 40.3487,14.3337C40.3487,12.7527 40.9217,11.5297 42.0687,10.6627C43.2137,9.7937 44.7188,9.3607 46.5897,9.3607C47.7527,9.3607 48.8347,9.5197 49.8287,9.8267C50.8297,10.1347 51.6118,10.5197 52.1847,10.9817L50.4807,13.9797C49.9688,13.6057 49.3657,13.3117 48.6737,13.0947C47.9787,12.8767 47.3167,12.7667 46.6837,12.7667" style="fill:rgb(30,34,39);fill-rule:nonzero;"/>
            </g>
            <g>
                <path d="M60.6784,16.8082C59.9654,16.8082 59.3724,17.0762 58.9174,17.6072C58.4494,18.1312 58.2154,18.8902 58.2154,19.8772C58.2154,20.8672 58.4624,21.6282 58.9494,22.1592C59.4374,22.6922 60.0324,22.9592 60.7244,22.9592C61.4134,22.9592 62.0274,22.7272 62.5604,22.2742L62.5604,17.8812C62.0224,17.1662 61.3944,16.8082 60.6784,16.8082M62.5604,30.7682L62.5604,25.6792C61.7964,26.1272 60.8774,26.3532 59.8114,26.3642C58.2014,26.3642 56.8744,25.7612 55.8104,24.5592C54.7414,23.3612 54.2114,21.7872 54.2114,19.8432C54.2114,18.7732 54.3864,17.8072 54.7364,16.9422C55.3524,15.4122 56.3974,14.3452 57.8704,13.7452C58.5084,13.4812 59.1464,13.3482 59.7874,13.3482C61.1414,13.3482 62.2294,13.8442 63.0504,14.8362L63.0944,14.8362L63.7294,13.7012L66.4534,13.7012L66.4534,30.7682L62.5604,30.7682Z" style="fill:rgb(30,34,39);fill-rule:nonzero;"/>
            </g>
            <g>
                <path d="M72.2726,19.588C72.2726,21.835 73.0996,22.959 74.7626,22.959C75.2956,22.959 75.7486,22.838 76.1206,22.596C76.8746,22.105 77.2486,21.191 77.2486,19.851C77.2486,18.848 77.0386,18.08 76.6156,17.549C76.1926,17.018 75.5766,16.754 74.7686,16.754C73.9526,16.754 73.3386,17.018 72.9076,17.549C72.4856,18.08 72.2726,18.762 72.2726,19.588M72.4016,13.747C73.1526,13.482 73.9416,13.348 74.7686,13.348C75.5926,13.348 76.3766,13.482 77.1246,13.747C77.8706,14.012 78.5516,14.401 79.1626,14.906C79.7716,15.412 80.2556,16.093 80.6116,16.949C80.9636,17.806 81.1416,18.721 81.1416,19.689C81.1416,20.662 81.0316,21.516 80.8046,22.244C80.3906,23.573 79.6176,24.594 78.4896,25.302C77.3616,26.007 76.1226,26.364 74.7736,26.364C73.0806,26.353 71.6096,25.834 70.3576,24.798C69.7466,24.296 69.2646,23.617 68.9126,22.76C68.5536,21.905 68.3786,20.936 68.3786,19.854C68.3786,18.774 68.5536,17.806 68.9126,16.949C69.2646,16.093 69.7466,15.412 70.3576,14.906C70.9716,14.401 71.6506,14.012 72.4016,13.747" style="fill:rgb(30,34,39);fill-rule:nonzero;"/>
            </g>
            <g>
                <path d="M89.8546,13.3483C90.4716,13.3483 91.0496,13.4893 91.5756,13.7693L90.8946,17.3323C90.3826,17.0663 89.9676,16.9363 89.6556,16.9363C88.5706,16.9363 87.7846,17.7673 87.2886,19.4313L87.2886,25.9643L83.3926,25.9643L83.3926,13.7453L86.3566,13.7453L86.9336,15.5813L87.0026,15.5813C87.6606,14.0913 88.6106,13.3483 89.8546,13.3483" style="fill:rgb(30,34,39);fill-rule:nonzero;"/>
            </g>
            <g>
                <path d="M100.24,18.6432C100.24,17.9122 100.06,17.3612 99.696,16.9862C99.327,16.6092 98.832,16.4222 98.197,16.4222C96.92,16.4222 96.177,17.1612 95.953,18.6432L100.24,18.6432ZM92.235,19.9062C92.235,17.9792 92.784,16.4042 93.877,15.1792C94.976,13.9582 96.406,13.3482 98.161,13.3482C99.467,13.3482 100.536,13.6212 101.373,14.1682C103.035,15.2532 103.867,16.8622 103.867,18.9942C103.867,19.7242 103.802,20.3982 103.678,21.0202L96.026,21.0202C96.339,22.5392 97.265,23.2962 98.81,23.2882C99.933,23.2882 100.953,22.9302 101.866,22.2122L103.302,24.7082C101.99,25.8012 100.313,26.3532 98.269,26.3642C95.827,26.3642 94.088,25.4112 93.046,23.5042C92.504,22.5182 92.235,21.3182 92.235,19.9062" style="fill:rgb(30,34,39);fill-rule:nonzero;"/>
            </g>
            <g>
                <path d="M33.612,14.88C30.574,10.812 24.528,4.726 20.4831,1.671C19.568,0.982 18.477,0.635 17.3871,0.635C16.296,0.635 15.208,0.982 14.296,1.671C10.249,4.726 4.20105,10.812 1.16405,14.88C0.47805,15.805 0.13305,16.902 0.13305,18C0.13305,19.097 0.47805,20.196 1.16405,21.119C4.20105,25.189 10.249,31.274 14.296,34.327C15.208,35.021 16.296,35.365 17.3871,35.365C18.477,35.365 19.568,35.021 20.4831,34.327C24.528,31.274 30.574,25.189 33.612,21.119C34.299,20.196 34.643,19.097 34.643,18C34.643,16.902 34.299,15.805 33.612,14.88" style="fill:rgb(153,23,99);fill-rule:nonzero;"/>
            </g>
            <g>
                <path d="M17.1066,26.6266C17.1066,26.8426 17.0177,27.0536 16.8666,27.2066L15.3756,28.7096C15.2996,28.7846 15.1736,28.7166 15.1916,28.6146L15.6396,26.0456C15.6556,25.9576 15.5956,25.8746 15.5026,25.8636C14.1266,25.7056 12.6456,25.3206 11.3576,24.6196C11.1856,24.5246 11.1156,24.3166 11.1807,24.1286L12.2847,20.9546C12.3406,20.7806 12.5347,20.7036 12.6987,20.7766C13.9916,21.3556 15.4026,21.6896 16.7156,21.6896L16.7646,21.6896C16.9506,21.6896 17.1066,21.8346 17.1066,22.0186L17.1066,26.6266Z" style="fill:white;fill-rule:nonzero;"/>
            </g>
            <g>
                <path d="M19.239,25.7003C19.15,25.7213 19.088,25.8073 19.107,25.9003L19.578,28.6153C19.597,28.7163 19.473,28.7843 19.401,28.7093L17.909,27.2063C17.756,27.0533 17.672,26.8433 17.672,26.6263L17.672,21.9533C17.672,21.7583 17.809,21.5933 17.998,21.5363C18.523,21.3703 18.817,21.0783 18.817,20.6563C18.817,19.7583 17.54,19.8043 15.364,19.0473C12.804,18.1493 11.296,17.0203 11.296,14.4453C11.296,10.9953 13.991,9.2903 17.608,9.2903C19.781,9.2903 21.837,9.9213 22.987,10.7423C23.146,10.8543 23.178,11.0753 23.084,11.2463L21.498,14.0573C21.409,14.2153 21.207,14.2583 21.054,14.1613C20.087,13.5423 18.76,13.1823 17.697,13.1823C16.668,13.1823 16.07,13.5243 16.07,14.1933C16.07,15.1593 17.352,15.1793 19.571,15.8923C22.198,16.7473 23.709,17.7573 23.709,20.4263C23.709,23.3423 21.878,25.0893 19.239,25.7003" style="fill:white;fill-rule:nonzero;"/>
            </g>
        </g>
    </g>
</svg>
